<svg xmlns="http://www.w3.org/2000/svg" viewBox="0 0 48 48"><defs><style>.cls-1{fill:#1e0f00;}</style></defs><title>Asset 161</title><g id="Layer_2" data-name="Layer 2"><g id="_1" data-name="1"><rect class="cls-1" x="42" y="26" width="2" height="17"/><rect class="cls-1" x="32" y="26" width="2" height="17"/><rect class="cls-1" x="35" y="34" width="2" height="2"/><rect class="cls-1" x="4" y="26" width="2" height="17"/><path class="cls-1" d="M28,39H10a1,1,0,0,1-1-1V25h2V37H27V26h2V38A1,1,0,0,1,28,39Z"/><rect class="cls-1" y="46" width="48" height="2"/><rect class="cls-1" x="2" y="42" width="44" height="2"/><path class="cls-1" d="M37,10H11A3,3,0,0,1,8,7V3a3,3,0,0,1,3-3H37a3,3,0,0,1,3,3V7A3,3,0,0,1,37,10ZM11,2a1,1,0,0,0-1,1V7a1,1,0,0,0,1,1H37a1,1,0,0,0,1-1V3a1,1,0,0,0-1-1Z"/><path class="cls-1" d="M34,15H14a1,1,0,0,1-1-1V9a1,1,0,0,1,1-1H34a1,1,0,0,1,1,1v5A1,1,0,0,1,34,15ZM15,13H33V10H15Z"/><path class="cls-1" d="M31,27H29a6,6,0,0,1-6-6,1,1,0,0,1,1-1H36a1,1,0,0,1,1,1A6,6,0,0,1,31,27Zm-5.87-5A4,4,0,0,0,29,25h2a4,4,0,0,0,3.87-3Z"/><path class="cls-1" d="M19,27H17a6,6,0,0,1-6-6,1,1,0,0,1,1-1H24a1,1,0,0,1,1,1A6,6,0,0,1,19,27Zm-5.87-5A4,4,0,0,0,17,25h2a4,4,0,0,0,3.87-3Z"/><path class="cls-1" d="M7,27H6a6,6,0,0,1-6-6,1,1,0,0,1,1-1H12a1,1,0,0,1,1,1A6,6,0,0,1,7,27ZM2.13,22A4,4,0,0,0,6,25H7a4,4,0,0,0,3.87-3Z"/><path class="cls-1" d="M42,27H41a6,6,0,0,1-6-6,1,1,0,0,1,1-1H47a1,1,0,0,1,1,1A6,6,0,0,1,42,27Zm-4.87-5A4,4,0,0,0,41,25h1a4,4,0,0,0,3.87-3Z"/><path class="cls-1" d="M47,22H1a1,1,0,0,1-.66-1.75l8-7A1,1,0,0,1,9,13H39a1,1,0,0,1,.66.25l8,7A1,1,0,0,1,47,22ZM3.66,20H44.34l-5.72-5H9.38Z"/><path class="cls-1" d="M36,22H12a1,1,0,0,1-.81-1.58l5-7A1,1,0,0,1,17,13H31a1,1,0,0,1,.81.42l5,7A1,1,0,0,1,36,22ZM13.94,20H34.06l-3.57-5h-13Z"/><rect class="cls-1" x="23" y="14" width="2" height="7"/><rect class="cls-1" x="28" y="4" width="8" height="2"/><rect class="cls-1" x="12" y="4" width="13" height="2"/></g></g></svg>